<?xml version="1.0" encoding="utf-8"?>
<!-- Generator: Adobe Illustrator 21.0.2, SVG Export Plug-In . SVG Version: 6.00 Build 0)  -->
<svg version="1.1" id="Layer_1" xmlns="http://www.w3.org/2000/svg" xmlns:xlink="http://www.w3.org/1999/xlink" x="0px" y="0px"
	 viewBox="0 0 988 1024" style="enable-background:new 0 0 988 1024;" xml:space="preserve">
<style type="text/css">
	.st0{opacity:0.29;}
	.st1{fill:#FF4D0E;}
</style>
<g class="st0">
	<g>
		<g>
			<g>
				<path class="st1" d="M218.9,208.7L167.3,150c-1.7-1.9-2.4-5.4-1.6-7.8l0,0c0.8-2.4,2.8-2.8,4.5-0.9l51.7,58.7
					c1.7,1.9,2.4,5.4,1.6,7.8l0,0C222.6,210.2,220.6,210.6,218.9,208.7z"/>
				<path class="st1" d="M258.8,254l-27.3-31c-1.7-1.9-2.4-5.4-1.6-7.8l0,0c0.8-2.4,2.8-2.8,4.5-0.9l27.3,31
					c1.7,1.9,2.4,5.4,1.6,7.8l0,0C262.5,255.5,260.5,255.9,258.8,254z"/>
			</g>
			<path class="st1" d="M254.4,222.1l-51.7-58.7c-1.7-1.9-2.4-5.4-1.6-7.8l0,0c0.8-2.4,2.8-2.8,4.5-0.9l51.7,58.7
				c1.7,1.9,2.4,5.4,1.6,7.8l0,0C258.1,223.6,256,224,254.4,222.1z"/>
			<path class="st1" d="M320.4,297.1l-51.7-58.7c-1.7-1.9-2.4-5.4-1.6-7.8l0,0c0.8-2.4,2.8-2.8,4.5-0.9l51.7,58.7
				c1.7,1.9,2.4,5.4,1.6,7.8l0,0C324.1,298.6,322.1,299,320.4,297.1z"/>
			<path class="st1" d="M309.8,338.9l-51.7-58.7c-1.7-1.9-2.4-5.4-1.6-7.8l0,0c0.8-2.4,2.8-2.8,4.5-0.9l51.7,58.7
				c1.7,1.9,2.4,5.4,1.6,7.8l0,0C313.5,340.4,311.5,340.8,309.8,338.9z"/>
			<path class="st1" d="M212.3,228.1l-15.1-17.2c-1.7-1.9-2.4-5.4-1.6-7.8l0,0c0.8-2.4,2.8-2.8,4.5-0.9l15.1,17.2
				c1.7,1.9,2.4,5.4,1.6,7.8l0,0C216,229.6,214,230,212.3,228.1z"/>
			<path class="st1" d="M342,375.5l-15.1-17.2c-1.7-1.9-2.4-5.4-1.6-7.8l0,0c0.8-2.4,2.8-2.8,4.5-0.9l15.1,17.2
				c1.7,1.9,2.4,5.4,1.6,7.8l0,0C345.7,377,343.7,377.4,342,375.5z"/>
			<path class="st1" d="M284.8,229.7L233.1,171c-1.7-1.9-2.4-5.4-1.6-7.8l0,0c0.8-2.4,2.8-2.8,4.5-0.9l51.7,58.7
				c1.7,1.9,2.4,5.4,1.6,7.8l0,0C288.5,231.2,286.4,231.6,284.8,229.7z"/>
			<path class="st1" d="M316.9,266.3l-15.1-17.2c-1.7-1.9-2.4-5.4-1.6-7.8l0,0c0.8-2.4,2.8-2.8,4.5-0.9l15.1,17.2
				c1.7,1.9,2.4,5.4,1.6,7.8l0,0C320.6,267.8,318.6,268.2,316.9,266.3z"/>
		</g>
		<g>
			<g>
				<path class="st1" d="M130.2,230.1l-51.7-58.7c-1.7-1.9-2.4-5.4-1.6-7.8l0,0c0.8-2.4,2.8-2.8,4.5-0.9l51.7,58.7
					c1.7,1.9,2.4,5.4,1.6,7.8l0,0C133.9,231.6,131.9,232,130.2,230.1z"/>
				<path class="st1" d="M170.1,275.5l-27.3-31c-1.7-1.9-2.4-5.4-1.6-7.8l0,0c0.8-2.4,2.8-2.8,4.5-0.9l27.3,31
					c1.7,1.9,2.4,5.4,1.6,7.8l0,0C173.8,277,171.8,277.4,170.1,275.5z"/>
			</g>
			<path class="st1" d="M165.6,243.5L114,184.8c-1.7-1.9-2.4-5.4-1.6-7.8l0,0c0.8-2.4,2.8-2.8,4.5-0.9l51.7,58.7
				c1.7,1.9,2.4,5.4,1.6,7.8l0,0C169.3,245,167.3,245.4,165.6,243.5z"/>
			<path class="st1" d="M231.7,318.5L180,259.8c-1.7-1.9-2.4-5.4-1.6-7.8l0,0c0.8-2.4,2.8-2.8,4.5-0.9l51.7,58.7
				c1.7,1.9,2.4,5.4,1.6,7.8l0,0C235.4,320.1,233.4,320.5,231.7,318.5z"/>
			<path class="st1" d="M221.1,360.3l-51.7-58.7c-1.7-1.9-2.4-5.4-1.6-7.8l0,0c0.8-2.4,2.8-2.8,4.5-0.9l51.7,58.7
				c1.7,1.9,2.4,5.4,1.6,7.8l0,0C224.8,361.8,222.8,362.2,221.1,360.3z"/>
			<path class="st1" d="M123.6,249.5l-15.1-17.2c-1.7-1.9-2.4-5.4-1.6-7.8l0,0c0.8-2.4,2.8-2.8,4.5-0.9l15.1,17.2
				c1.7,1.9,2.4,5.4,1.6,7.8l0,0C127.3,251,125.3,251.4,123.6,249.5z"/>
			<path class="st1" d="M253.2,396.9l-15.1-17.2c-1.7-1.9-2.4-5.4-1.6-7.8l0,0c0.8-2.4,2.8-2.8,4.5-0.9l15.1,17.2
				c1.7,1.9,2.4,5.4,1.6,7.8l0,0C256.9,398.4,254.9,398.8,253.2,396.9z"/>
			<path class="st1" d="M196,251.1l-51.7-58.7c-1.7-1.9-2.4-5.4-1.6-7.8l0,0c0.8-2.4,2.8-2.8,4.5-0.9l51.7,58.7
				c1.7,1.9,2.4,5.4,1.6,7.8l0,0C199.7,252.6,197.7,253,196,251.1z"/>
			<path class="st1" d="M228.2,287.7l-15.1-17.2c-1.7-1.9-2.4-5.4-1.6-7.8l0,0c0.8-2.4,2.8-2.8,4.5-0.9l15.1,17.2
				c1.7,1.9,2.4,5.4,1.6,7.8l0,0C231.9,289.2,229.9,289.6,228.2,287.7z"/>
		</g>
		<g>
			<g>
				<path class="st1" d="M169.6,328.1L118,269.4c-1.7-1.9-2.4-5.4-1.6-7.8l0,0c0.8-2.4,2.8-2.8,4.5-0.9l51.7,58.7
					c1.7,1.9,2.4,5.4,1.6,7.8l0,0C173.3,329.7,171.3,330.1,169.6,328.1z"/>
				<path class="st1" d="M209.5,373.5l-27.3-31c-1.7-1.9-2.4-5.4-1.6-7.8l0,0c0.8-2.4,2.8-2.8,4.5-0.9l27.3,31
					c1.7,1.9,2.4,5.4,1.6,7.8l0,0C213.2,375,211.2,375.4,209.5,373.5z"/>
			</g>
			<path class="st1" d="M205.1,341.5l-51.7-58.7c-1.7-1.9-2.4-5.4-1.6-7.8l0,0c0.8-2.4,2.8-2.8,4.5-0.9l51.7,58.7
				c1.7,1.9,2.4,5.4,1.6,7.8l0,0C208.8,343,206.7,343.4,205.1,341.5z"/>
			<path class="st1" d="M271.1,416.6l-51.7-58.7c-1.7-1.9-2.4-5.4-1.6-7.8l0,0c0.8-2.4,2.8-2.8,4.5-0.9l51.7,58.7
				c1.7,1.9,2.4,5.4,1.6,7.8l0,0C274.8,418.1,272.8,418.5,271.1,416.6z"/>
			<path class="st1" d="M260.5,458.4l-51.7-58.7c-1.7-1.9-2.4-5.4-1.6-7.8l0,0c0.8-2.4,2.8-2.8,4.5-0.9l51.7,58.7
				c1.7,1.9,2.4,5.4,1.6,7.8l0,0C264.2,459.9,262.2,460.3,260.5,458.4z"/>
			<path class="st1" d="M163,347.6l-15.1-17.2c-1.7-1.9-2.4-5.4-1.6-7.8l0,0c0.8-2.4,2.8-2.8,4.5-0.9l15.1,17.2
				c1.7,1.9,2.4,5.4,1.6,7.8l0,0C166.7,349.1,164.7,349.5,163,347.6z"/>
			<path class="st1" d="M292.7,494.9l-15.1-17.2c-1.7-1.9-2.4-5.4-1.6-7.8l0,0c0.8-2.4,2.8-2.8,4.5-0.9l15.1,17.2
				c1.7,1.9,2.4,5.4,1.6,7.8l0,0C296.4,496.4,294.4,496.8,292.7,494.9z"/>
			<path class="st1" d="M235.5,349.2l-51.7-58.7c-1.7-1.9-2.4-5.4-1.6-7.8l0,0c0.8-2.4,2.8-2.8,4.5-0.9l51.7,58.7
				c1.7,1.9,2.4,5.4,1.6,7.8l0,0C239.2,350.7,237.1,351.1,235.5,349.2z"/>
			<path class="st1" d="M267.6,385.7l-15.1-17.2c-1.7-1.9-2.4-5.4-1.6-7.8l0,0c0.8-2.4,2.8-2.8,4.5-0.9l15.1,17.2
				c1.7,1.9,2.4,5.4,1.6,7.8l0,0C271.3,387.2,269.3,387.6,267.6,385.7z"/>
		</g>
		<g>
			<path class="st1" d="M343.8,438.2l-51.7-58.7c-1.7-1.9-2.4-5.4-1.6-7.8l0,0c0.8-2.4,2.8-2.8,4.5-0.9l51.7,58.7
				c1.7,1.9,2.4,5.4,1.6,7.8l0,0C347.5,439.7,345.5,440.1,343.8,438.2z"/>
			<path class="st1" d="M333.2,480l-51.7-58.7c-1.7-1.9-2.4-5.4-1.6-7.8l0,0c0.8-2.4,2.8-2.8,4.5-0.9l51.7,58.7
				c1.7,1.9,2.4,5.4,1.6,7.8l0,0C336.9,481.5,334.9,481.9,333.2,480z"/>
			<path class="st1" d="M365.4,516.6l-15.1-17.2c-1.7-1.9-2.4-5.4-1.6-7.8l0,0c0.8-2.4,2.8-2.8,4.5-0.9l15.1,17.2
				c1.7,1.9,2.4,5.4,1.6,7.8l0,0C369.1,518.1,367.1,518.5,365.4,516.6z"/>
			<path class="st1" d="M308.2,370.8l-51.7-58.7c-1.7-1.9-2.4-5.4-1.6-7.8l0,0c0.8-2.4,2.8-2.8,4.5-0.9l51.7,58.7
				c1.7,1.9,2.4,5.4,1.6,7.8l0,0C311.9,372.3,309.9,372.7,308.2,370.8z"/>
			<path class="st1" d="M340.3,407.4l-15.1-17.2c-1.7-1.9-2.4-5.4-1.6-7.8l0,0c0.8-2.4,2.8-2.8,4.5-0.9l15.1,17.2
				c1.7,1.9,2.4,5.4,1.6,7.8l0,0C344,408.9,342,409.3,340.3,407.4z"/>
		</g>
	</g>
	<g>
		<g>
			<g>
				<path class="st1" d="M732.6,738.9l-51.7-58.7c-1.7-1.9-2.4-5.4-1.6-7.8l0,0c0.8-2.4,2.8-2.8,4.5-0.9l51.7,58.7
					c1.7,1.9,2.4,5.4,1.6,7.8l0,0C736.3,740.4,734.2,740.8,732.6,738.9z"/>
				<path class="st1" d="M772.5,784.2l-27.3-31c-1.7-1.9-2.4-5.4-1.6-7.8l0,0c0.8-2.4,2.8-2.8,4.5-0.9l27.3,31
					c1.7,1.9,2.4,5.4,1.6,7.8l0,0C776.2,785.7,774.2,786.1,772.5,784.2z"/>
			</g>
			<path class="st1" d="M768,752.3l-51.7-58.7c-1.7-1.9-2.4-5.4-1.6-7.8l0,0c0.8-2.4,2.8-2.8,4.5-0.9l51.7,58.7
				c1.7,1.9,2.4,5.4,1.6,7.8l0,0C771.7,753.8,769.7,754.2,768,752.3z"/>
			<path class="st1" d="M834.1,827.3l-51.7-58.7c-1.7-1.9-2.4-5.4-1.6-7.8l0,0c0.8-2.4,2.8-2.8,4.5-0.9l51.7,58.7
				c1.7,1.9,2.4,5.4,1.6,7.8l0,0C837.8,828.8,835.7,829.2,834.1,827.3z"/>
			<path class="st1" d="M823.5,869.1l-51.7-58.7c-1.7-1.9-2.4-5.4-1.6-7.8l0,0c0.8-2.4,2.8-2.8,4.5-0.9l51.7,58.7
				c1.7,1.9,2.4,5.4,1.6,7.8l0,0C827.2,870.6,825.2,871,823.5,869.1z"/>
			<path class="st1" d="M726,758.3l-15.1-17.2c-1.7-1.9-2.4-5.4-1.6-7.8l0,0c0.8-2.4,2.8-2.8,4.5-0.9l15.1,17.2
				c1.7,1.9,2.4,5.4,1.6,7.8l0,0C729.7,759.8,727.7,760.2,726,758.3z"/>
			<path class="st1" d="M855.6,905.7l-15.1-17.2c-1.7-1.9-2.4-5.4-1.6-7.8l0,0c0.8-2.4,2.8-2.8,4.5-0.9l15.1,17.2
				c1.7,1.9,2.4,5.4,1.6,7.8l0,0C859.3,907.2,857.3,907.6,855.6,905.7z"/>
			<path class="st1" d="M798.4,759.9l-51.7-58.7c-1.7-1.9-2.4-5.4-1.6-7.8l0,0c0.8-2.4,2.8-2.8,4.5-0.9l51.7,58.7
				c1.7,1.9,2.4,5.4,1.6,7.8l0,0C802.1,761.4,800.1,761.8,798.4,759.9z"/>
			<path class="st1" d="M830.6,796.4l-15.1-17.2c-1.7-1.9-2.4-5.4-1.6-7.8l0,0c0.8-2.4,2.8-2.8,4.5-0.9l15.1,17.2
				c1.7,1.9,2.4,5.4,1.6,7.8l0,0C834.3,798,832.2,798.4,830.6,796.4z"/>
		</g>
		<g>
			<g>
				<path class="st1" d="M643.8,760.3l-51.7-58.7c-1.7-1.9-2.4-5.4-1.6-7.8l0,0c0.8-2.4,2.8-2.8,4.5-0.9l51.7,58.7
					c1.7,1.9,2.4,5.4,1.6,7.8l0,0C647.5,761.8,645.5,762.2,643.8,760.3z"/>
				<path class="st1" d="M683.7,805.6l-27.3-31c-1.7-1.9-2.4-5.4-1.6-7.8l0,0c0.8-2.4,2.8-2.8,4.5-0.9l27.3,31
					c1.7,1.9,2.4,5.4,1.6,7.8l0,0C687.4,807.2,685.4,807.6,683.7,805.6z"/>
			</g>
			<path class="st1" d="M679.3,773.7L627.6,715c-1.7-1.9-2.4-5.4-1.6-7.8l0,0c0.8-2.4,2.8-2.8,4.5-0.9l51.7,58.7
				c1.7,1.9,2.4,5.4,1.6,7.8l0,0C683,775.2,681,775.6,679.3,773.7z"/>
			<path class="st1" d="M745.3,848.7L693.7,790c-1.7-1.9-2.4-5.4-1.6-7.8l0,0c0.8-2.4,2.8-2.8,4.5-0.9l51.7,58.7
				c1.7,1.9,2.4,5.4,1.6,7.8l0,0C749,850.2,747,850.7,745.3,848.7z"/>
			<path class="st1" d="M734.7,890.5L683,831.8c-1.7-1.9-2.4-5.4-1.6-7.8l0,0c0.8-2.4,2.8-2.8,4.5-0.9l51.7,58.7
				c1.7,1.9,2.4,5.4,1.6,7.8l0,0C738.4,892,736.4,892.4,734.7,890.5z"/>
			<path class="st1" d="M637.3,779.7l-15.1-17.2c-1.7-1.9-2.4-5.4-1.6-7.8l0,0c0.8-2.4,2.8-2.8,4.5-0.9l15.1,17.2
				c1.7,1.9,2.4,5.4,1.6,7.8l0,0C641,781.2,638.9,781.6,637.3,779.7z"/>
			<path class="st1" d="M766.9,927.1l-15.1-17.2c-1.7-1.9-2.4-5.4-1.6-7.8l0,0c0.8-2.4,2.8-2.8,4.5-0.9l15.1,17.2
				c1.7,1.9,2.4,5.4,1.6,7.8l0,0C770.6,928.6,768.6,929,766.9,927.1z"/>
			<path class="st1" d="M709.7,781.3L658,722.6c-1.7-1.9-2.4-5.4-1.6-7.8l0,0c0.8-2.4,2.8-2.8,4.5-0.9l51.7,58.7
				c1.7,1.9,2.4,5.4,1.6,7.8l0,0C713.4,782.8,711.4,783.2,709.7,781.3z"/>
			<path class="st1" d="M741.8,817.9l-15.1-17.2c-1.7-1.9-2.4-5.4-1.6-7.8l0,0c0.8-2.4,2.8-2.8,4.5-0.9l15.1,17.2
				c1.7,1.9,2.4,5.4,1.6,7.8l0,0C745.5,819.4,743.5,819.8,741.8,817.9z"/>
		</g>
		<g>
			<g>
				<path class="st1" d="M683.3,858.3l-51.7-58.7c-1.7-1.9-2.4-5.4-1.6-7.8l0,0c0.8-2.4,2.8-2.8,4.5-0.9l51.7,58.7
					c1.7,1.9,2.4,5.4,1.6,7.8l0,0C687,859.8,684.9,860.3,683.3,858.3z"/>
				<path class="st1" d="M723.2,903.7l-27.3-31c-1.7-1.9-2.4-5.4-1.6-7.8l0,0c0.8-2.4,2.8-2.8,4.5-0.9l27.3,31
					c1.7,1.9,2.4,5.4,1.6,7.8l0,0C726.9,905.2,724.9,905.6,723.2,903.7z"/>
			</g>
			<path class="st1" d="M718.7,871.7L667.1,813c-1.7-1.9-2.4-5.4-1.6-7.8l0,0c0.8-2.4,2.8-2.8,4.5-0.9l51.7,58.7
				c1.7,1.9,2.4,5.4,1.6,7.8l0,0C722.4,873.2,720.4,873.6,718.7,871.7z"/>
			<path class="st1" d="M784.8,946.8l-51.7-58.7c-1.7-1.9-2.4-5.4-1.6-7.8l0,0c0.8-2.4,2.8-2.8,4.5-0.9l51.7,58.7
				c1.7,1.9,2.4,5.4,1.6,7.8l0,0C788.5,948.3,786.4,948.7,784.8,946.8z"/>
			<path class="st1" d="M774.2,988.6l-51.7-58.7c-1.7-1.9-2.4-5.4-1.6-7.8l0,0c0.8-2.4,2.8-2.8,4.5-0.9l51.7,58.7
				c1.7,1.9,2.4,5.4,1.6,7.8l0,0C777.9,990.1,775.9,990.5,774.2,988.6z"/>
			<path class="st1" d="M676.7,877.8l-15.1-17.2c-1.7-1.9-2.4-5.4-1.6-7.8l0,0c0.8-2.4,2.8-2.8,4.5-0.9l15.1,17.2
				c1.7,1.9,2.4,5.4,1.6,7.8l0,0C680.4,879.3,678.4,879.7,676.7,877.8z"/>
			<path class="st1" d="M806.3,1025.1l-15.1-17.2c-1.7-1.9-2.4-5.4-1.6-7.8l0,0c0.8-2.4,2.8-2.8,4.5-0.9l15.1,17.2
				c1.7,1.9,2.4,5.4,1.6,7.8l0,0C810,1026.6,808,1027,806.3,1025.1z"/>
			<path class="st1" d="M749.1,879.4l-51.7-58.7c-1.7-1.9-2.4-5.4-1.6-7.8l0,0c0.8-2.4,2.8-2.8,4.5-0.9l51.7,58.7
				c1.7,1.9,2.4,5.4,1.6,7.8l0,0C752.8,880.9,750.8,881.3,749.1,879.4z"/>
			<path class="st1" d="M781.3,915.9l-15.1-17.2c-1.7-1.9-2.4-5.4-1.6-7.8l0,0c0.8-2.4,2.8-2.8,4.5-0.9l15.1,17.2
				c1.7,1.9,2.4,5.4,1.6,7.8l0,0C785,917.4,782.9,917.8,781.3,915.9z"/>
		</g>
		<g>
			<path class="st1" d="M857.5,968.4l-51.7-58.7c-1.7-1.9-2.4-5.4-1.6-7.8l0,0c0.8-2.4,2.8-2.8,4.5-0.9l51.7,58.7
				c1.7,1.9,2.4,5.4,1.6,7.8l0,0C861.2,969.9,859.2,970.3,857.5,968.4z"/>
			<path class="st1" d="M846.9,1010.2l-51.7-58.7c-1.7-1.9-2.4-5.4-1.6-7.8l0,0c0.8-2.4,2.8-2.8,4.5-0.9l51.7,58.7
				c1.7,1.9,2.4,5.4,1.6,7.8l0,0C850.6,1011.7,848.6,1012.1,846.9,1010.2z"/>
			<path class="st1" d="M879,1046.8l-15.1-17.2c-1.7-1.9-2.4-5.4-1.6-7.8l0,0c0.8-2.4,2.8-2.8,4.5-0.9L882,1038
				c1.7,1.9,2.4,5.4,1.6,7.8l0,0C882.7,1048.3,880.7,1048.7,879,1046.8z"/>
			<path class="st1" d="M821.8,901l-51.7-58.7c-1.7-1.9-2.4-5.4-1.6-7.8l0,0c0.8-2.4,2.8-2.8,4.5-0.9l51.7,58.7
				c1.7,1.9,2.4,5.4,1.6,7.8l0,0C825.5,902.5,823.5,902.9,821.8,901z"/>
			<path class="st1" d="M854,937.5l-15.1-17.2c-1.7-1.9-2.4-5.4-1.6-7.8l0,0c0.8-2.4,2.8-2.8,4.5-0.9l15.1,17.2
				c1.7,1.9,2.4,5.4,1.6,7.8l0,0C857.7,939.1,855.7,939.5,854,937.5z"/>
		</g>
	</g>
	<g>
		<g>
			<g>
				<path class="st1" d="M304.4,558.6l-51.7-58.7c-1.7-1.9-2.4-5.4-1.6-7.8l0,0c0.8-2.4,2.8-2.8,4.5-0.9l51.7,58.7
					c1.7,1.9,2.4,5.4,1.6,7.8l0,0C308.1,560.1,306,560.5,304.4,558.6z"/>
				<path class="st1" d="M344.3,603.9l-27.3-31c-1.7-1.9-2.4-5.4-1.6-7.8l0,0c0.8-2.4,2.8-2.8,4.5-0.9l27.3,31
					c1.7,1.9,2.4,5.4,1.6,7.8l0,0C348,605.4,345.9,605.8,344.3,603.9z"/>
			</g>
			<path class="st1" d="M339.8,572l-51.7-58.7c-1.7-1.9-2.4-5.4-1.6-7.8l0,0c0.8-2.4,2.8-2.8,4.5-0.9l51.7,58.7
				c1.7,1.9,2.4,5.4,1.6,7.8l0,0C343.5,573.5,341.5,573.9,339.8,572z"/>
			<path class="st1" d="M405.9,647l-51.7-58.7c-1.7-1.9-2.4-5.4-1.6-7.8l0,0c0.8-2.4,2.8-2.8,4.5-0.9l51.7,58.7
				c1.7,1.9,2.4,5.4,1.6,7.8l0,0C409.6,648.5,407.5,648.9,405.9,647z"/>
			<path class="st1" d="M395.3,688.8l-51.7-58.7c-1.7-1.9-2.4-5.4-1.6-7.8l0,0c0.8-2.4,2.8-2.8,4.5-0.9l51.7,58.7
				c1.7,1.9,2.4,5.4,1.6,7.8l0,0C399,690.3,396.9,690.7,395.3,688.8z"/>
			<path class="st1" d="M297.8,578l-15.1-17.2c-1.7-1.9-2.4-5.4-1.6-7.8l0,0c0.8-2.4,2.8-2.8,4.5-0.9l15.1,17.2
				c1.7,1.9,2.4,5.4,1.6,7.8l0,0C301.5,579.5,299.5,579.9,297.8,578z"/>
			<path class="st1" d="M427.4,725.4l-15.1-17.2c-1.7-1.9-2.4-5.4-1.6-7.8l0,0c0.8-2.4,2.8-2.8,4.5-0.9l15.1,17.2
				c1.7,1.9,2.4,5.4,1.6,7.8l0,0C431.1,726.9,429.1,727.3,427.4,725.4z"/>
			<path class="st1" d="M370.2,579.6l-51.7-58.7c-1.7-1.9-2.4-5.4-1.6-7.8l0,0c0.8-2.4,2.8-2.8,4.5-0.9l51.7,58.7
				c1.7,1.9,2.4,5.4,1.6,7.8l0,0C373.9,581.1,371.9,581.5,370.2,579.6z"/>
			<path class="st1" d="M402.4,616.2L387.2,599c-1.7-1.9-2.4-5.4-1.6-7.8l0,0c0.8-2.4,2.8-2.8,4.5-0.9l15.1,17.2
				c1.7,1.9,2.4,5.4,1.6,7.8l0,0C406.1,617.7,404,618.1,402.4,616.2z"/>
		</g>
		<g>
			<g>
				<path class="st1" d="M215.6,580L164,521.3c-1.7-1.9-2.4-5.4-1.6-7.8l0,0c0.8-2.4,2.8-2.8,4.5-0.9l51.7,58.7
					c1.7,1.9,2.4,5.4,1.6,7.8l0,0C219.3,581.5,217.3,581.9,215.6,580z"/>
				<path class="st1" d="M255.5,625.4l-27.3-31c-1.7-1.9-2.4-5.4-1.6-7.8l0,0c0.8-2.4,2.8-2.8,4.5-0.9l27.3,31
					c1.7,1.9,2.4,5.4,1.6,7.8l0,0C259.2,626.9,257.2,627.3,255.5,625.4z"/>
			</g>
			<path class="st1" d="M251.1,593.4l-51.7-58.7c-1.7-1.9-2.4-5.4-1.6-7.8l0,0c0.8-2.4,2.8-2.8,4.5-0.9l51.7,58.7
				c1.7,1.9,2.4,5.4,1.6,7.8l0,0C254.8,594.9,252.8,595.3,251.1,593.4z"/>
			<path class="st1" d="M317.1,668.4l-51.7-58.7c-1.7-1.9-2.4-5.4-1.6-7.8l0,0c0.8-2.4,2.8-2.8,4.5-0.9l51.7,58.7
				c1.7,1.9,2.4,5.4,1.6,7.8l0,0C320.8,670,318.8,670.4,317.1,668.4z"/>
			<path class="st1" d="M306.5,710.2l-51.7-58.7c-1.7-1.9-2.4-5.4-1.6-7.8l0,0c0.8-2.4,2.8-2.8,4.5-0.9l51.7,58.7
				c1.7,1.9,2.4,5.4,1.6,7.8l0,0C310.2,711.7,308.2,712.1,306.5,710.2z"/>
			<path class="st1" d="M209.1,599.4L194,582.2c-1.7-1.9-2.4-5.4-1.6-7.8l0,0c0.8-2.4,2.8-2.8,4.5-0.9l15.1,17.2
				c1.7,1.9,2.4,5.4,1.6,7.8l0,0C212.8,600.9,210.7,601.3,209.1,599.4z"/>
			<path class="st1" d="M338.7,746.8l-15.1-17.2c-1.7-1.9-2.4-5.4-1.6-7.8l0,0c0.8-2.4,2.8-2.8,4.5-0.9l15.1,17.2
				c1.7,1.9,2.4,5.4,1.6,7.8l0,0C342.4,748.3,340.4,748.7,338.7,746.8z"/>
			<path class="st1" d="M281.5,601l-51.7-58.7c-1.7-1.9-2.4-5.4-1.6-7.8l0,0c0.8-2.4,2.8-2.8,4.5-0.9l51.7,58.7
				c1.7,1.9,2.4,5.4,1.6,7.8l0,0C285.2,602.5,283.2,602.9,281.5,601z"/>
			<path class="st1" d="M313.6,637.6l-15.1-17.2c-1.7-1.9-2.4-5.4-1.6-7.8l0,0c0.8-2.4,2.8-2.8,4.5-0.9l15.1,17.2
				c1.7,1.9,2.4,5.4,1.6,7.8l0,0C317.3,639.1,315.3,639.5,313.6,637.6z"/>
		</g>
		<g>
			<g>
				<path class="st1" d="M255.1,678l-51.7-58.7c-1.7-1.9-2.4-5.4-1.6-7.8l0,0c0.8-2.4,2.8-2.8,4.5-0.9l51.7,58.7
					c1.7,1.9,2.4,5.4,1.6,7.8l0,0C258.8,679.6,256.7,680,255.1,678z"/>
				<path class="st1" d="M295,723.4l-27.3-31c-1.7-1.9-2.4-5.4-1.6-7.8l0,0c0.8-2.4,2.8-2.8,4.5-0.9l27.3,31
					c1.7,1.9,2.4,5.4,1.6,7.8l0,0C298.7,724.9,296.6,725.3,295,723.4z"/>
			</g>
			<path class="st1" d="M290.5,691.4l-51.7-58.7c-1.7-1.9-2.4-5.4-1.6-7.8l0,0c0.8-2.4,2.8-2.8,4.5-0.9l51.7,58.7
				c1.7,1.9,2.4,5.4,1.6,7.8l0,0C294.2,692.9,292.2,693.3,290.5,691.4z"/>
			<path class="st1" d="M356.6,766.5l-51.7-58.7c-1.7-1.9-2.4-5.4-1.6-7.8l0,0c0.8-2.4,2.8-2.8,4.5-0.9l51.7,58.7
				c1.7,1.9,2.4,5.4,1.6,7.8l0,0C360.3,768,358.2,768.4,356.6,766.5z"/>
			<path class="st1" d="M346,808.3l-51.7-58.7c-1.7-1.9-2.4-5.4-1.6-7.8l0,0c0.8-2.4,2.8-2.8,4.5-0.9l51.7,58.7
				c1.7,1.9,2.4,5.4,1.6,7.8l0,0C349.7,809.8,347.6,810.2,346,808.3z"/>
			<path class="st1" d="M248.5,697.5l-15.1-17.2c-1.7-1.9-2.4-5.4-1.6-7.8l0,0c0.8-2.4,2.8-2.8,4.5-0.9l15.1,17.2
				c1.7,1.9,2.4,5.4,1.6,7.8l0,0C252.2,699,250.2,699.4,248.5,697.5z"/>
			<path class="st1" d="M378.1,844.8L363,827.6c-1.7-1.9-2.4-5.4-1.6-7.8l0,0c0.8-2.4,2.8-2.8,4.5-0.9l15.1,17.2
				c1.7,1.9,2.4,5.4,1.6,7.8l0,0C381.8,846.3,379.8,846.7,378.1,844.8z"/>
			<path class="st1" d="M320.9,699.1l-51.7-58.7c-1.7-1.9-2.4-5.4-1.6-7.8l0,0c0.8-2.4,2.8-2.8,4.5-0.9l51.7,58.7
				c1.7,1.9,2.4,5.4,1.6,7.8l0,0C324.6,700.6,322.6,701,320.9,699.1z"/>
			<path class="st1" d="M353.1,735.6L338,718.4c-1.7-1.9-2.4-5.4-1.6-7.8l0,0c0.8-2.4,2.8-2.8,4.5-0.9l15.1,17.2
				c1.7,1.9,2.4,5.4,1.6,7.8l0,0C356.8,737.1,354.7,737.5,353.1,735.6z"/>
		</g>
		<g>
			<path class="st1" d="M429.3,788.1l-51.7-58.7c-1.7-1.9-2.4-5.4-1.6-7.8l0,0c0.8-2.4,2.8-2.8,4.5-0.9l51.7,58.7
				c1.7,1.9,2.4,5.4,1.6,7.8l0,0C433,789.6,431,790,429.3,788.1z"/>
			<path class="st1" d="M418.7,829.9L367,771.2c-1.7-1.9-2.4-5.4-1.6-7.8l0,0c0.8-2.4,2.8-2.8,4.5-0.9l51.7,58.7
				c1.7,1.9,2.4,5.4,1.6,7.8l0,0C422.4,831.4,420.4,831.8,418.7,829.9z"/>
			<path class="st1" d="M450.8,866.5l-15.1-17.2c-1.7-1.9-2.4-5.4-1.6-7.8l0,0c0.8-2.4,2.8-2.8,4.5-0.9l15.1,17.2
				c1.7,1.9,2.4,5.4,1.6,7.8l0,0C454.5,868,452.5,868.4,450.8,866.5z"/>
			<path class="st1" d="M393.6,720.7L342,662c-1.7-1.9-2.4-5.4-1.6-7.8l0,0c0.8-2.4,2.8-2.8,4.5-0.9l51.7,58.7
				c1.7,1.9,2.4,5.4,1.6,7.8l0,0C397.3,722.2,395.3,722.6,393.6,720.7z"/>
			<path class="st1" d="M425.8,757.3l-15.1-17.2c-1.7-1.9-2.4-5.4-1.6-7.8l0,0c0.8-2.4,2.8-2.8,4.5-0.9l15.1,17.2
				c1.7,1.9,2.4,5.4,1.6,7.8l0,0C429.5,758.8,427.5,759.2,425.8,757.3z"/>
		</g>
	</g>
	<g>
		<g>
			<g>
				<path class="st1" d="M990.2,869.6l-51.7-58.7c-1.7-1.9-2.4-5.4-1.6-7.8l0,0c0.8-2.4,2.8-2.8,4.5-0.9l51.7,58.7
					c1.7,1.9,2.4,5.4,1.6,7.8l0,0C993.9,871.1,991.9,871.5,990.2,869.6z"/>
				<path class="st1" d="M1030.1,914.9l-27.3-31c-1.7-1.9-2.4-5.4-1.6-7.8l0,0c0.8-2.4,2.8-2.8,4.5-0.9l27.3,31
					c1.7,1.9,2.4,5.4,1.6,7.8l0,0C1033.8,916.4,1031.8,916.8,1030.1,914.9z"/>
			</g>
			<path class="st1" d="M1025.6,882.9L974,824.2c-1.7-1.9-2.4-5.4-1.6-7.8l0,0c0.8-2.4,2.8-2.8,4.5-0.9l51.7,58.7
				c1.7,1.9,2.4,5.4,1.6,7.8l0,0C1029.3,884.4,1027.3,884.8,1025.6,882.9z"/>
			<path class="st1" d="M1091.7,958l-51.7-58.7c-1.7-1.9-2.4-5.4-1.6-7.8l0,0c0.8-2.4,2.8-2.8,4.5-0.9l51.7,58.7
				c1.7,1.9,2.4,5.4,1.6,7.8l0,0C1095.4,959.5,1093.4,959.9,1091.7,958z"/>
			<path class="st1" d="M1081.1,999.8l-51.7-58.7c-1.7-1.9-2.4-5.4-1.6-7.8l0,0c0.8-2.4,2.8-2.8,4.5-0.9l51.7,58.7
				c1.7,1.9,2.4,5.4,1.6,7.8l0,0C1084.8,1001.3,1082.8,1001.7,1081.1,999.8z"/>
			<path class="st1" d="M983.6,889l-15.1-17.2c-1.7-1.9-2.4-5.4-1.6-7.8l0,0c0.8-2.4,2.8-2.8,4.5-0.9l15.1,17.2
				c1.7,1.9,2.4,5.4,1.6,7.8l0,0C987.3,890.5,985.3,890.9,983.6,889z"/>
			<path class="st1" d="M1113.2,1036.3l-15.1-17.2c-1.7-1.9-2.4-5.4-1.6-7.8l0,0c0.8-2.4,2.8-2.8,4.5-0.9l15.1,17.2
				c1.7,1.9,2.4,5.4,1.6,7.8l0,0C1116.9,1037.8,1114.9,1038.3,1113.2,1036.3z"/>
			<path class="st1" d="M1056,890.6l-51.7-58.7c-1.7-1.9-2.4-5.4-1.6-7.8l0,0c0.8-2.4,2.8-2.8,4.5-0.9l51.7,58.7
				c1.7,1.9,2.4,5.4,1.6,7.8l0,0C1059.7,892.1,1057.7,892.5,1056,890.6z"/>
			<path class="st1" d="M1088.2,927.1l-15.1-17.2c-1.7-1.9-2.4-5.4-1.6-7.8l0,0c0.8-2.4,2.8-2.8,4.5-0.9l15.1,17.2
				c1.7,1.9,2.4,5.4,1.6,7.8l0,0C1091.9,928.6,1089.9,929,1088.2,927.1z"/>
		</g>
		<g>
			<g>
				<path class="st1" d="M901.5,891l-51.7-58.7c-1.7-1.9-2.4-5.4-1.6-7.8l0,0c0.8-2.4,2.8-2.8,4.5-0.9l51.7,58.7
					c1.7,1.9,2.4,5.4,1.6,7.8l0,0C905.2,892.5,903.1,892.9,901.5,891z"/>
				<path class="st1" d="M941.4,936.3l-27.3-31c-1.7-1.9-2.4-5.4-1.6-7.8l0,0c0.8-2.4,2.8-2.8,4.5-0.9l27.3,31
					c1.7,1.9,2.4,5.4,1.6,7.8l0,0C945.1,937.8,943,938.2,941.4,936.3z"/>
			</g>
			<path class="st1" d="M936.9,904.4l-51.7-58.7c-1.7-1.9-2.4-5.4-1.6-7.8l0,0c0.8-2.4,2.8-2.8,4.5-0.9l51.7,58.7
				c1.7,1.9,2.4,5.4,1.6,7.8l0,0C940.6,905.9,938.6,906.3,936.9,904.4z"/>
			<path class="st1" d="M1002.9,979.4l-51.7-58.7c-1.7-1.9-2.4-5.4-1.6-7.8l0,0c0.8-2.4,2.8-2.8,4.5-0.9l51.7,58.7
				c1.7,1.9,2.4,5.4,1.6,7.8l0,0C1006.6,980.9,1004.6,981.3,1002.9,979.4z"/>
			<path class="st1" d="M992.4,1021.2l-51.7-58.7c-1.7-1.9-2.4-5.4-1.6-7.8l0,0c0.8-2.4,2.8-2.8,4.5-0.9l51.7,58.7
				c1.7,1.9,2.4,5.4,1.6,7.8l0,0C996.1,1022.7,994,1023.1,992.4,1021.2z"/>
			<path class="st1" d="M894.9,910.4l-15.1-17.2c-1.7-1.9-2.4-5.4-1.6-7.8l0,0c0.8-2.4,2.8-2.8,4.5-0.9l15.1,17.2
				c1.7,1.9,2.4,5.4,1.6,7.8l0,0C898.6,911.9,896.6,912.3,894.9,910.4z"/>
			<path class="st1" d="M1024.5,1057.8l-15.1-17.2c-1.7-1.9-2.4-5.4-1.6-7.8l0,0c0.8-2.4,2.8-2.8,4.5-0.9l15.1,17.2
				c1.7,1.9,2.4,5.4,1.6,7.8l0,0C1028.2,1059.3,1026.2,1059.7,1024.5,1057.8z"/>
			<path class="st1" d="M967.3,912l-51.7-58.7c-1.7-1.9-2.4-5.4-1.6-7.8l0,0c0.8-2.4,2.8-2.8,4.5-0.9l51.7,58.7
				c1.7,1.9,2.4,5.4,1.6,7.8l0,0C971,913.5,969,913.9,967.3,912z"/>
			<path class="st1" d="M999.5,948.5l-15.1-17.2c-1.7-1.9-2.4-5.4-1.6-7.8l0,0c0.8-2.4,2.8-2.8,4.5-0.9l15.1,17.2
				c1.7,1.9,2.4,5.4,1.6,7.8l0,0C1003.2,950.1,1001.1,950.5,999.5,948.5z"/>
		</g>
		<g>
			<g>
				<path class="st1" d="M940.9,989l-51.7-58.7c-1.7-1.9-2.4-5.4-1.6-7.8l0,0c0.8-2.4,2.8-2.8,4.5-0.9l51.7,58.7
					c1.7,1.9,2.4,5.4,1.6,7.8l0,0C944.6,990.5,942.6,990.9,940.9,989z"/>
				<path class="st1" d="M980.8,1034.4l-27.3-31c-1.7-1.9-2.4-5.4-1.6-7.8l0,0c0.8-2.4,2.8-2.8,4.5-0.9l27.3,31
					c1.7,1.9,2.4,5.4,1.6,7.8l0,0C984.5,1035.9,982.5,1036.3,980.8,1034.4z"/>
			</g>
			<path class="st1" d="M976.3,1002.4l-51.7-58.7c-1.7-1.9-2.4-5.4-1.6-7.8l0,0c0.8-2.4,2.8-2.8,4.5-0.9l51.7,58.7
				c1.7,1.9,2.4,5.4,1.6,7.8l0,0C980,1003.9,978,1004.3,976.3,1002.4z"/>
			<path class="st1" d="M1042.4,1077.5l-51.7-58.7c-1.7-1.9-2.4-5.4-1.6-7.8l0,0c0.8-2.4,2.8-2.8,4.5-0.9l51.7,58.7
				c1.7,1.9,2.4,5.4,1.6,7.8l0,0C1046.1,1079,1044.1,1079.4,1042.4,1077.5z"/>
			<path class="st1" d="M1031.8,1119.3l-51.7-58.7c-1.7-1.9-2.4-5.4-1.6-7.8l0,0c0.8-2.4,2.8-2.8,4.5-0.9l51.7,58.7
				c1.7,1.9,2.4,5.4,1.6,7.8l0,0C1035.5,1120.8,1033.5,1121.2,1031.8,1119.3z"/>
			<path class="st1" d="M934.3,1008.5l-15.1-17.2c-1.7-1.9-2.4-5.4-1.6-7.8l0,0c0.8-2.4,2.8-2.8,4.5-0.9l15.1,17.2
				c1.7,1.9,2.4,5.4,1.6,7.8l0,0C938,1010,936,1010.4,934.3,1008.5z"/>
			<path class="st1" d="M1063.9,1155.8l-15.1-17.2c-1.7-1.9-2.4-5.4-1.6-7.8l0,0c0.8-2.4,2.8-2.8,4.5-0.9l15.1,17.2
				c1.7,1.9,2.4,5.4,1.6,7.8l0,0C1067.6,1157.3,1065.6,1157.7,1063.9,1155.8z"/>
			<path class="st1" d="M1006.7,1010.1L955,951.4c-1.7-1.9-2.4-5.4-1.6-7.8l0,0c0.8-2.4,2.8-2.8,4.5-0.9l51.7,58.7
				c1.7,1.9,2.4,5.4,1.6,7.8l0,0C1010.4,1011.6,1008.4,1012,1006.7,1010.1z"/>
			<path class="st1" d="M1038.9,1046.6l-15.1-17.2c-1.7-1.9-2.4-5.4-1.6-7.8l0,0c0.8-2.4,2.8-2.8,4.5-0.9l15.1,17.2
				c1.7,1.9,2.4,5.4,1.6,7.8l0,0C1042.6,1048.1,1040.6,1048.5,1038.9,1046.6z"/>
		</g>
		<g>
			<path class="st1" d="M1115.1,1099.1l-51.7-58.7c-1.7-1.9-2.4-5.4-1.6-7.8l0,0c0.8-2.4,2.8-2.8,4.5-0.9l51.7,58.7
				c1.7,1.9,2.4,5.4,1.6,7.8l0,0C1118.8,1100.6,1116.8,1101,1115.1,1099.1z"/>
			<path class="st1" d="M1104.5,1140.9l-51.7-58.7c-1.7-1.9-2.4-5.4-1.6-7.8l0,0c0.8-2.4,2.8-2.8,4.5-0.9l51.7,58.7
				c1.7,1.9,2.4,5.4,1.6,7.8l0,0C1108.2,1142.4,1106.2,1142.8,1104.5,1140.9z"/>
			<path class="st1" d="M1136.7,1177.4l-15.1-17.2c-1.7-1.9-2.4-5.4-1.6-7.8l0,0c0.8-2.4,2.8-2.8,4.5-0.9l15.1,17.2
				c1.7,1.9,2.4,5.4,1.6,7.8l0,0C1140.4,1178.9,1138.3,1179.4,1136.7,1177.4z"/>
			<path class="st1" d="M1079.5,1031.7l-51.7-58.7c-1.7-1.9-2.4-5.4-1.6-7.8l0,0c0.8-2.4,2.8-2.8,4.5-0.9l51.7,58.7
				c1.7,1.9,2.4,5.4,1.6,7.8l0,0C1083.2,1033.2,1081.1,1033.6,1079.5,1031.7z"/>
			<path class="st1" d="M1111.6,1068.2l-15.1-17.2c-1.7-1.9-2.4-5.4-1.6-7.8l0,0c0.8-2.4,2.8-2.8,4.5-0.9l15.1,17.2
				c1.7,1.9,2.4,5.4,1.6,7.8l0,0C1115.3,1069.7,1113.3,1070.1,1111.6,1068.2z"/>
		</g>
	</g>
	<g>
		<g>
			<g>
				<path class="st1" d="M13.3-126l-51.7-58.7c-1.7-1.9-2.4-5.4-1.6-7.8l0,0c0.8-2.4,2.8-2.8,4.5-0.9l51.7,58.7
					c1.7,1.9,2.4,5.4,1.6,7.8l0,0C17-124.5,14.9-124,13.3-126z"/>
				<path class="st1" d="M53.2-80.6l-27.3-31c-1.7-1.9-2.4-5.4-1.6-7.8l0,0c0.8-2.4,2.8-2.8,4.5-0.9l27.3,31
					c1.7,1.9,2.4,5.4,1.6,7.8l0,0C56.9-79.1,54.9-78.7,53.2-80.6z"/>
			</g>
			<path class="st1" d="M48.7-112.6L-3-171.3c-1.7-1.9-2.4-5.4-1.6-7.8l0,0c0.8-2.4,2.8-2.8,4.5-0.9l51.7,58.7
				c1.7,1.9,2.4,5.4,1.6,7.8l0,0C52.4-111.1,50.4-110.7,48.7-112.6z"/>
			<path class="st1" d="M114.8-37.5L63.1-96.2c-1.7-1.9-2.4-5.4-1.6-7.8l0,0c0.8-2.4,2.8-2.8,4.5-0.9l51.7,58.7
				c1.7,1.9,2.4,5.4,1.6,7.8l0,0C118.5-36,116.4-35.6,114.8-37.5z"/>
			<path class="st1" d="M104.2,4.3L52.5-54.4c-1.7-1.9-2.4-5.4-1.6-7.8l0,0c0.8-2.4,2.8-2.8,4.5-0.9l51.7,58.7
				c1.7,1.9,2.4,5.4,1.6,7.8l0,0C107.9,5.8,105.9,6.2,104.2,4.3z"/>
			<path class="st1" d="M6.7-106.5l-15.1-17.2c-1.7-1.9-2.4-5.4-1.6-7.8l0,0c0.8-2.4,2.8-2.8,4.5-0.9l15.1,17.2
				c1.7,1.9,2.4,5.4,1.6,7.8l0,0C10.4-105,8.4-104.6,6.7-106.5z"/>
			<path class="st1" d="M136.3,40.8l-15.1-17.2c-1.7-1.9-2.4-5.4-1.6-7.8l0,0c0.8-2.4,2.8-2.8,4.5-0.9l15.1,17.2
				c1.7,1.9,2.4,5.4,1.6,7.8l0,0C140,42.3,138,42.7,136.3,40.8z"/>
			<path class="st1" d="M79.1-104.9l-51.7-58.7c-1.7-1.9-2.4-5.4-1.6-7.8l0,0c0.8-2.4,2.8-2.8,4.5-0.9L82-113.6
				c1.7,1.9,2.4,5.4,1.6,7.8l0,0C82.8-103.4,80.8-103,79.1-104.9z"/>
			<path class="st1" d="M111.3-68.4L96.1-85.6c-1.7-1.9-2.4-5.4-1.6-7.8l0,0c0.8-2.4,2.8-2.8,4.5-0.9l15.1,17.2
				c1.7,1.9,2.4,5.4,1.6,7.8l0,0C115-66.9,112.9-66.5,111.3-68.4z"/>
		</g>
		<g>
			<g>
				<path class="st1" d="M-75.5-104.5l-51.7-58.7c-1.7-1.9-2.4-5.4-1.6-7.8l0,0c0.8-2.4,2.8-2.8,4.5-0.9l51.7,58.7
					c1.7,1.9,2.4,5.4,1.6,7.8l0,0C-71.8-103-73.8-102.6-75.5-104.5z"/>
				<path class="st1" d="M-35.6-59.2l-27.3-31c-1.7-1.9-2.4-5.4-1.6-7.8l0,0c0.8-2.4,2.8-2.8,4.5-0.9l27.3,31
					c1.7,1.9,2.4,5.4,1.6,7.8l0,0C-31.9-57.7-33.9-57.3-35.6-59.2z"/>
			</g>
			<path class="st1" d="M-40-91.2l-51.7-58.7c-1.7-1.9-2.4-5.4-1.6-7.8l0,0c0.8-2.4,2.8-2.8,4.5-0.9l51.7,58.7
				c1.7,1.9,2.4,5.4,1.6,7.8l0,0C-36.3-89.7-38.3-89.3-40-91.2z"/>
			<path class="st1" d="M26-16.1l-51.7-58.7c-1.7-1.9-2.4-5.4-1.6-7.8l0,0c0.8-2.4,2.8-2.8,4.5-0.9L29-24.8c1.7,1.9,2.4,5.4,1.6,7.8
				l0,0C29.7-14.6,27.7-14.2,26-16.1z"/>
			<path class="st1" d="M15.4,25.7L-36.2-33c-1.7-1.9-2.4-5.4-1.6-7.8l0,0c0.8-2.4,2.8-2.8,4.5-0.9L18.4,17c1.7,1.9,2.4,5.4,1.6,7.8
				l0,0C19.1,27.2,17.1,27.6,15.4,25.7z"/>
			<path class="st1" d="M-82-85.1l-15.1-17.2c-1.7-1.9-2.4-5.4-1.6-7.8l0,0c0.8-2.4,2.8-2.8,4.5-0.9l15.1,17.2
				c1.7,1.9,2.4,5.4,1.6,7.8l0,0C-78.3-83.6-80.4-83.2-82-85.1z"/>
			<path class="st1" d="M47.6,62.2L32.5,45.1c-1.7-1.9-2.4-5.4-1.6-7.8l0,0c0.8-2.4,2.8-2.8,4.5-0.9l15.1,17.2
				c1.7,1.9,2.4,5.4,1.6,7.8l0,0C51.3,63.8,49.3,64.2,47.6,62.2z"/>
			<path class="st1" d="M-9.6-83.5l-51.7-58.7c-1.7-1.9-2.4-5.4-1.6-7.8l0,0c0.8-2.4,2.8-2.8,4.5-0.9l51.7,58.7
				c1.7,1.9,2.4,5.4,1.6,7.8l0,0C-5.9-82-7.9-81.6-9.6-83.5z"/>
			<path class="st1" d="M22.5-47L7.4-64.2C5.7-66.1,5-69.6,5.9-72l0,0c0.8-2.4,2.8-2.8,4.5-0.9l15.1,17.2c1.7,1.9,2.4,5.4,1.6,7.8
				l0,0C26.2-45.5,24.2-45.1,22.5-47z"/>
		</g>
		<g>
			<g>
				<path class="st1" d="M-36-6.5l-51.7-58.7c-1.7-1.9-2.4-5.4-1.6-7.8l0,0c0.8-2.4,2.8-2.8,4.5-0.9l51.7,58.7
					c1.7,1.9,2.4,5.4,1.6,7.8l0,0C-32.3-5-34.4-4.6-36-6.5z"/>
				<path class="st1" d="M3.9,38.9l-27.3-31c-1.7-2-2.4-5.5-1.6-7.9l0,0c0.8-2.4,2.8-2.8,4.5-0.9l27.3,31c1.7,1.9,2.4,5.4,1.6,7.8
					l0,0C7.6,40.4,5.6,40.8,3.9,38.9z"/>
			</g>
			<path class="st1" d="M-0.6,6.9l-51.7-58.7c-1.7-1.9-2.4-5.4-1.6-7.8l0,0c0.8-2.4,2.8-2.8,4.5-0.9L2.4-1.8C4,0.1,4.7,3.6,3.9,6
				l0,0C3.1,8.4,1.1,8.8-0.6,6.9z"/>
			<path class="st1" d="M65.5,82L13.8,23.3c-1.7-1.9-2.4-5.4-1.6-7.8l0,0c0.8-2.4,2.8-2.8,4.5-0.9l51.7,58.7
				c1.7,1.9,2.4,5.4,1.6,7.8l0,0C69.2,83.5,67.1,83.9,65.5,82z"/>
			<path class="st1" d="M54.9,123.8L3.2,65c-1.7-1.9-2.4-5.4-1.6-7.8l0,0c0.8-2.4,2.8-2.8,4.5-0.9L57.8,115c1.7,1.9,2.4,5.4,1.6,7.8
				l0,0C58.6,125.3,56.6,125.7,54.9,123.8z"/>
			<path class="st1" d="M-42.6,13L-57.7-4.2c-1.7-1.9-2.4-5.4-1.6-7.8l0,0c0.8-2.4,2.8-2.8,4.5-0.9l15.1,17.2
				c1.7,1.9,2.4,5.4,1.6,7.8l0,0C-38.9,14.5-40.9,14.9-42.6,13z"/>
			<path class="st1" d="M87,160.3l-15.1-17.2c-1.7-1.9-2.4-5.4-1.6-7.8l0,0c0.8-2.4,2.8-2.8,4.5-0.9L90,151.6
				c1.7,1.9,2.4,5.4,1.6,7.8l0,0C90.7,161.8,88.7,162.2,87,160.3z"/>
			<path class="st1" d="M29.8,14.5l-51.7-58.7c-1.7-1.9-2.4-5.4-1.6-7.8l0,0c0.8-2.4,2.8-2.8,4.5-0.9L32.8,5.8
				c1.7,1.9,2.4,5.4,1.6,7.8l0,0C33.5,16,31.5,16.4,29.8,14.5z"/>
			<path class="st1" d="M62,51.1L46.8,33.9c-1.7-1.9-2.4-5.4-1.6-7.8l0,0c0.8-2.4,2.8-2.8,4.5-0.9l15.1,17.2
				c1.7,1.9,2.4,5.4,1.6,7.8l0,0C65.7,52.6,63.6,53,62,51.1z"/>
		</g>
		<g>
			<path class="st1" d="M138.2,103.6L86.5,44.9c-1.7-1.9-2.4-5.4-1.6-7.8l0,0c0.8-2.4,2.8-2.8,4.5-0.9l51.7,58.7
				c1.7,1.9,2.4,5.4,1.6,7.8l0,0C141.9,105.1,139.9,105.5,138.2,103.6z"/>
			<path class="st1" d="M127.6,145.4L75.9,86.7c-1.7-1.9-2.4-5.4-1.6-7.8l0,0c0.8-2.4,2.8-2.8,4.5-0.9l51.7,58.7
				c1.7,1.9,2.4,5.4,1.6,7.8l0,0C131.3,146.9,129.3,147.3,127.6,145.4z"/>
			<path class="st1" d="M159.8,181.9l-15.1-17.2c-1.7-1.9-2.4-5.4-1.6-7.8l0,0c0.8-2.4,2.8-2.8,4.5-0.9l15.1,17.2
				c1.7,1.9,2.4,5.4,1.6,7.8l0,0C163.4,183.4,161.4,183.8,159.8,181.9z"/>
			<path class="st1" d="M102.5,36.2L50.9-22.5c-1.7-1.9-2.4-5.4-1.6-7.8l0,0c0.8-2.4,2.8-2.8,4.5-0.9l51.7,58.7
				c1.7,1.9,2.4,5.4,1.6,7.8l0,0C106.2,37.7,104.2,38.1,102.5,36.2z"/>
			<path class="st1" d="M134.7,72.7l-15.1-17.2c-1.7-1.9-2.4-5.4-1.6-7.8l0,0c0.8-2.4,2.8-2.8,4.5-0.9L137.6,64
				c1.7,1.9,2.4,5.4,1.6,7.8l0,0C138.4,74.2,136.4,74.6,134.7,72.7z"/>
		</g>
	</g>
	<g>
		<g>
			<g>
				<path class="st1" d="M508.9,639.4l57.2,66.6c1.9,2.2,2.6,6.1,1.7,8.8l0,0c-0.9,2.7-3.2,3.1-5.1,1l-57.2-66.6
					c-1.9-2.2-2.6-6.1-1.7-8.8l0,0C504.8,637.7,507,637.3,508.9,639.4z"/>
				<path class="st1" d="M464.7,588l30.2,35.2c1.9,2.2,2.6,6.1,1.7,8.8l0,0c-0.9,2.7-3.2,3.1-5.1,1l-30.2-35.2
					c-1.9-2.2-2.6-6.1-1.7-8.8l0,0C460.6,586.2,462.8,585.8,464.7,588z"/>
			</g>
			<path class="st1" d="M469.3,623.9l57.2,66.6c1.9,2.2,2.6,6.1,1.7,8.8l0,0c-0.9,2.7-3.2,3.1-5.1,1l-57.2-66.6
				c-1.9-2.2-2.6-6.1-1.7-8.8l0,0C465.2,622.2,467.4,621.8,469.3,623.9z"/>
			<path class="st1" d="M396.2,538.8l57.2,66.6c1.9,2.2,2.6,6.1,1.7,8.8l0,0c-0.9,2.7-3.2,3.1-5.1,1l-57.2-66.6
				c-1.9-2.2-2.6-6.1-1.7-8.8l0,0C392,537,394.3,536.6,396.2,538.8z"/>
			<path class="st1" d="M408.6,492l57.2,66.6c1.9,2.2,2.6,6.1,1.7,8.8l0,0c-0.9,2.7-3.2,3.1-5.1,1l-57.2-66.6
				c-1.9-2.2-2.6-6.1-1.7-8.8l0,0C404.5,490.3,406.8,489.9,408.6,492z"/>
			<path class="st1" d="M516.5,617.7l16.7,19.5c1.9,2.2,2.6,6.1,1.7,8.8l0,0c-0.9,2.7-3.2,3.1-5.1,1l-16.7-19.5
				c-1.9-2.2-2.6-6.1-1.7-8.8l0,0C512.4,616,514.7,615.5,516.5,617.7z"/>
			<path class="st1" d="M373,450.6l16.7,19.5c1.9,2.2,2.6,6.1,1.7,8.8l0,0c-0.9,2.7-3.2,3.1-5.1,1l-16.7-19.5
				c-1.9-2.2-2.6-6.1-1.7-8.8l0,0C368.9,448.8,371.2,448.4,373,450.6z"/>
			<path class="st1" d="M435.3,614.9l57.2,66.6c1.9,2.2,2.6,6.1,1.7,8.8l0,0c-0.9,2.7-3.2,3.1-5.1,1l-57.2-66.6
				c-1.9-2.2-2.6-6.1-1.7-8.8l0,0C431.1,613.2,433.4,612.8,435.3,614.9z"/>
			<path class="st1" d="M399.7,573.5l16.7,19.5c1.9,2.2,2.6,6.1,1.7,8.8l0,0c-0.9,2.7-3.2,3.1-5.1,1l-16.7-19.5
				c-1.9-2.2-2.6-6.1-1.7-8.8l0,0C395.5,571.7,397.8,571.3,399.7,573.5z"/>
		</g>
		<g>
			<g>
				<path class="st1" d="M608.8,616.6l57.2,66.6c1.9,2.2,2.6,6.1,1.7,8.8l0,0c-0.9,2.7-3.2,3.1-5.1,1l-57.2-66.6
					c-1.9-2.2-2.6-6.1-1.7-8.8l0,0C604.6,614.8,606.9,614.4,608.8,616.6z"/>
				<path class="st1" d="M564.6,565.1l30.2,35.2c1.9,2.2,2.6,6.1,1.7,8.8l0,0c-0.9,2.7-3.2,3.1-5.1,1l-30.2-35.2
					c-1.9-2.2-2.6-6.1-1.7-8.8l0,0C560.5,563.4,562.7,563,564.6,565.1z"/>
			</g>
			<path class="st1" d="M569.2,601.1l57.2,66.6c1.9,2.2,2.6,6.1,1.7,8.8l0,0c-0.9,2.7-3.2,3.1-5.1,1l-57.2-66.6
				c-1.9-2.2-2.6-6.1-1.7-8.8l0,0C565,599.4,567.3,598.9,569.2,601.1z"/>
			<path class="st1" d="M496,515.9l57.2,66.6c1.9,2.2,2.6,6.1,1.7,8.8l0,0c-0.9,2.7-3.2,3.1-5.1,1l-57.2-66.6
				c-1.9-2.2-2.6-6.1-1.7-8.8l0,0C491.9,514.2,494.2,513.8,496,515.9z"/>
			<path class="st1" d="M508.5,469.2l57.2,66.6c1.9,2.2,2.6,6.1,1.7,8.8l0,0c-0.9,2.7-3.2,3.1-5.1,1L505.1,479
				c-1.9-2.2-2.6-6.1-1.7-8.8l0,0C504.4,467.4,506.6,467,508.5,469.2z"/>
			<path class="st1" d="M616.4,594.9l16.7,19.5c1.9,2.2,2.6,6.1,1.7,8.8l0,0c-0.9,2.7-3.2,3.1-5.1,1L613,604.6
				c-1.9-2.2-2.6-6.1-1.7-8.8l0,0C612.3,593.1,614.5,592.7,616.4,594.9z"/>
			<path class="st1" d="M472.9,427.7l16.7,19.5c1.9,2.2,2.6,6.1,1.7,8.8l0,0c-0.9,2.7-3.2,3.1-5.1,1l-16.7-19.5
				c-1.9-2.2-2.6-6.1-1.7-8.8l0,0C468.8,426,471,425.6,472.9,427.7z"/>
			<path class="st1" d="M535.1,592.1l57.2,66.6c1.9,2.2,2.6,6.1,1.7,8.8l0,0c-0.9,2.7-3.2,3.1-5.1,1l-57.2-66.6
				c-1.9-2.2-2.6-6.1-1.7-8.8l0,0C531,590.4,533.3,589.9,535.1,592.1z"/>
			<path class="st1" d="M499.6,550.6l16.7,19.5c1.9,2.2,2.6,6.1,1.7,8.8l0,0c-0.9,2.7-3.2,3.1-5.1,1l-16.7-19.5
				c-1.9-2.2-2.6-6.1-1.7-8.8l0,0C495.4,548.9,497.7,548.5,499.6,550.6z"/>
		</g>
		<g>
			<g>
				<path class="st1" d="M565.8,506l57.2,66.6c1.9,2.2,2.6,6.1,1.7,8.8l0,0c-0.9,2.7-3.2,3.1-5.1,1l-57.2-66.6
					c-1.9-2.2-2.6-6.1-1.7-8.8l0,0C561.7,504.3,564,503.8,565.8,506z"/>
				<path class="st1" d="M521.7,454.5l30.2,35.2c1.9,2.2,2.6,6.1,1.7,8.8l0,0c-0.9,2.7-3.2,3.1-5.1,1l-30.2-35.2
					c-1.9-2.2-2.6-6.1-1.7-8.8l0,0C517.5,452.8,519.8,452.4,521.7,454.5z"/>
			</g>
			<path class="st1" d="M526.2,490.5l57.2,66.6c1.9,2.2,2.6,6.1,1.7,8.8l0,0c-0.9,2.7-3.2,3.1-5.1,1l-57.2-66.6
				c-1.9-2.2-2.6-6.1-1.7-8.8l0,0C522.1,488.8,524.4,488.3,526.2,490.5z"/>
			<path class="st1" d="M453.1,405.3l57.2,66.6c1.9,2.2,2.6,6.1,1.7,8.8l0,0c-0.9,2.7-3.2,3.1-5.1,1l-57.2-66.6
				c-1.9-2.2-2.6-6.1-1.7-8.8l0,0C449,403.6,451.3,403.2,453.1,405.3z"/>
			<path class="st1" d="M465.6,358.6l57.2,66.6c1.9,2.2,2.6,6.1,1.7,8.8l0,0c-0.9,2.7-3.2,3.1-5.1,1l-57.2-66.6
				c-1.9-2.2-2.6-6.1-1.7-8.8l0,0C461.4,356.9,463.7,356.4,465.6,358.6z"/>
			<path class="st1" d="M573.5,484.3l16.7,19.5c1.9,2.2,2.6,6.1,1.7,8.8l0,0c-0.9,2.7-3.2,3.1-5.1,1L570,494
				c-1.9-2.2-2.6-6.1-1.7-8.8l0,0C569.3,482.5,571.6,482.1,573.5,484.3z"/>
			<path class="st1" d="M430,317.1l16.7,19.5c1.9,2.2,2.6,6.1,1.7,8.8l0,0c-0.9,2.7-3.2,3.1-5.1,1l-16.7-19.5
				c-1.9-2.2-2.6-6.1-1.7-8.8l0,0C425.8,315.4,428.1,315,430,317.1z"/>
			<path class="st1" d="M492.2,481.5l57.2,66.6c1.9,2.2,2.6,6.1,1.7,8.8l0,0c-0.9,2.7-3.2,3.1-5.1,1l-57.2-66.6
				c-1.9-2.2-2.6-6.1-1.7-8.8l0,0C488.1,479.8,490.4,479.3,492.2,481.5z"/>
			<path class="st1" d="M456.6,440.1l16.7,19.5c1.9,2.2,2.6,6.1,1.7,8.8l0,0c-0.9,2.7-3.2,3.1-5.1,1l-16.7-19.5
				c-1.9-2.2-2.6-6.1-1.7-8.8l0,0C452.5,438.3,454.8,437.9,456.6,440.1z"/>
		</g>
		<g>
			<path class="st1" d="M371.8,380.1l57.2,66.6c1.9,2.2,2.6,6.1,1.7,8.8l0,0c-0.9,2.7-3.2,3.1-5.1,1l-57.2-66.6
				c-1.9-2.2-2.6-6.1-1.7-8.8l0,0C367.7,378.4,369.9,377.9,371.8,380.1z"/>
			<path class="st1" d="M384.2,333.3l57.2,66.6c1.9,2.2,2.6,6.1,1.7,8.8l0,0c-0.9,2.7-3.2,3.1-5.1,1l-57.2-66.6
				c-1.9-2.2-2.6-6.1-1.7-8.8l0,0C380.1,331.6,382.4,331.2,384.2,333.3z"/>
			<path class="st1" d="M348.6,291.9l16.7,19.5c1.9,2.2,2.6,6.1,1.7,8.8l0,0c-0.9,2.7-3.2,3.1-5.1,1l-16.7-19.5
				c-1.9-2.2-2.6-6.1-1.7-8.8l0,0C344.5,290.1,346.8,289.7,348.6,291.9z"/>
			<path class="st1" d="M410.9,456.3l57.2,66.6c1.9,2.2,2.6,6.1,1.7,8.8l0,0c-0.9,2.7-3.2,3.1-5.1,1L407.5,466
				c-1.9-2.2-2.6-6.1-1.7-8.8l0,0C406.8,454.5,409,454.1,410.9,456.3z"/>
			<path class="st1" d="M375.3,414.8l16.7,19.5c1.9,2.2,2.6,6.1,1.7,8.8l0,0c-0.9,2.7-3.2,3.1-5.1,1l-16.7-19.5
				c-1.9-2.2-2.6-6.1-1.7-8.8l0,0C371.2,413.1,373.4,412.6,375.3,414.8z"/>
		</g>
	</g>
	<g>
		<g>
			<g>
				<path class="st1" d="M61.4,465l57.2,66.6c1.9,2.2,2.6,6.1,1.7,8.8l0,0c-0.9,2.7-3.2,3.1-5.1,1L58,474.7
					c-1.9-2.2-2.6-6.1-1.7-8.8l0,0C57.3,463.2,59.6,462.8,61.4,465z"/>
				<path class="st1" d="M17.3,413.5l30.2,35.2c1.9,2.2,2.6,6.1,1.7,8.8l0,0c-0.9,2.7-3.2,3.1-5.1,1l-30.2-35.2
					c-1.9-2.2-2.6-6.1-1.7-8.8l0,0C13.1,411.8,15.4,411.3,17.3,413.5z"/>
			</g>
			<path class="st1" d="M21.8,449.5L79,516.1c1.9,2.2,2.6,6.1,1.7,8.8l0,0c-0.9,2.7-3.2,3.1-5.1,1l-57.2-66.6
				c-1.9-2.2-2.6-6.1-1.7-8.8l0,0C17.7,447.7,20,447.3,21.8,449.5z"/>
			<path class="st1" d="M-51.3,364.3l57.2,66.6c1.9,2.2,2.6,6.1,1.7,8.8l0,0c-0.9,2.7-3.2,3.1-5.1,1L-54.7,374
				c-1.9-2.2-2.6-6.1-1.7-8.8l0,0C-55.4,362.6-53.1,362.1-51.3,364.3z"/>
			<path class="st1" d="M-38.8,317.6l57.2,66.6c1.9,2.2,2.6,6.1,1.7,8.8l0,0c-0.9,2.7-3.2,3.1-5.1,1l-57.2-66.6
				c-1.9-2.2-2.6-6.1-1.7-8.8l0,0C-43,315.8-40.7,315.4-38.8,317.6z"/>
			<path class="st1" d="M69.1,443.2l16.7,19.5c1.9,2.2,2.6,6.1,1.7,8.8l0,0c-0.9,2.7-3.2,3.1-5.1,1L65.6,453
				c-1.9-2.2-2.6-6.1-1.7-8.8l0,0C64.9,441.5,67.2,441.1,69.1,443.2z"/>
			<path class="st1" d="M-74.4,276.1l16.7,19.5c1.9,2.2,2.6,6.1,1.7,8.8l0,0c-0.9,2.7-3.2,3.1-5.1,1l-16.7-19.5
				c-1.9-2.2-2.6-6.1-1.7-8.8l0,0C-78.6,274.4-76.3,273.9-74.4,276.1z"/>
			<path class="st1" d="M-12.2,440.5L45,507.1c1.9,2.2,2.6,6.1,1.7,8.8l0,0c-0.9,2.7-3.2,3.1-5.1,1l-57.2-66.6
				c-1.9-2.2-2.6-6.1-1.7-8.8l0,0C-16.3,438.7-14,438.3-12.2,440.5z"/>
			<path class="st1" d="M-47.8,399l16.7,19.5c1.9,2.2,2.6,6.1,1.7,8.8l0,0c-0.9,2.7-3.2,3.1-5.1,1l-16.7-19.5
				c-1.9-2.2-2.6-6.1-1.7-8.8l0,0C-51.9,397.3-49.6,396.8-47.8,399z"/>
		</g>
		<g>
			<g>
				<path class="st1" d="M161.3,442.1l57.2,66.6c1.9,2.2,2.6,6.1,1.7,8.8l0,0c-0.9,2.7-3.2,3.1-5.1,1l-57.2-66.6
					c-1.9-2.2-2.6-6.1-1.7-8.8l0,0C157.2,440.4,159.4,439.9,161.3,442.1z"/>
				<path class="st1" d="M117.1,390.7l30.2,35.2c1.9,2.2,2.6,6.1,1.7,8.8l0,0c-0.9,2.7-3.2,3.1-5.1,1l-30.2-35.2
					c-1.9-2.2-2.6-6.1-1.7-8.8l0,0C113,388.9,115.3,388.5,117.1,390.7z"/>
			</g>
			<path class="st1" d="M121.7,426.6l57.2,66.6c1.9,2.2,2.6,6.1,1.7,8.8l0,0c-0.9,2.7-3.2,3.1-5.1,1l-57.2-66.6
				c-1.9-2.2-2.6-6.1-1.7-8.8l0,0C117.6,424.9,119.9,424.5,121.7,426.6z"/>
			<path class="st1" d="M48.6,341.5l57.2,66.6c1.9,2.2,2.6,6.1,1.7,8.8l0,0c-0.9,2.7-3.2,3.1-5.1,1l-57.2-66.6
				c-1.9-2.2-2.6-6.1-1.7-8.8l0,0C44.5,339.7,46.7,339.3,48.6,341.5z"/>
			<path class="st1" d="M61,294.7l57.2,66.6c1.9,2.2,2.6,6.1,1.7,8.8l0,0c-0.9,2.7-3.2,3.1-5.1,1l-57.2-66.6
				c-1.9-2.2-2.6-6.1-1.7-8.8l0,0C56.9,293,59.2,292.5,61,294.7z"/>
			<path class="st1" d="M168.9,420.4l16.7,19.5c1.9,2.2,2.6,6.1,1.7,8.8l0,0c-0.9,2.7-3.2,3.1-5.1,1l-16.7-19.5
				c-1.9-2.2-2.6-6.1-1.7-8.8l0,0C164.8,418.7,167.1,418.2,168.9,420.4z"/>
			<path class="st1" d="M25.4,253.3l16.7,19.5c1.9,2.2,2.6,6.1,1.7,8.8l0,0c-0.9,2.7-3.2,3.1-5.1,1L22,263c-1.9-2.2-2.6-6.1-1.7-8.8
				l0,0C21.3,251.5,23.6,251.1,25.4,253.3z"/>
			<path class="st1" d="M87.7,417.6l57.2,66.6c1.9,2.2,2.6,6.1,1.7,8.8l0,0c-0.9,2.7-3.2,3.1-5.1,1l-57.2-66.6
				c-1.9-2.2-2.6-6.1-1.7-8.8l0,0C83.6,415.9,85.8,415.5,87.7,417.6z"/>
			<path class="st1" d="M52.1,376.2l16.7,19.5c1.9,2.2,2.6,6.1,1.7,8.8l0,0c-0.9,2.7-3.2,3.1-5.1,1L48.7,386
				c-1.9-2.2-2.6-6.1-1.7-8.8l0,0C48,374.4,50.2,374,52.1,376.2z"/>
		</g>
		<g>
			<g>
				<path class="st1" d="M118.4,331.5l57.2,66.6c1.9,2.2,2.6,6.1,1.7,8.8l0,0c-0.9,2.7-3.2,3.1-5.1,1L115,341.3
					c-1.9-2.2-2.6-6.1-1.7-8.8l0,0C114.2,329.8,116.5,329.4,118.4,331.5z"/>
				<path class="st1" d="M74.2,280.1l30.2,35.2c1.9,2.2,2.6,6.1,1.7,8.8l0,0c-0.9,2.7-3.2,3.1-5.1,1l-30.2-35.2
					c-1.9-2.2-2.6-6.1-1.7-8.8l0,0C70.1,278.3,72.3,277.9,74.2,280.1z"/>
			</g>
			<path class="st1" d="M78.8,316l57.2,66.6c1.9,2.2,2.6,6.1,1.7,8.8l0,0c-0.9,2.7-3.2,3.1-5.1,1l-57.2-66.6
				c-1.9-2.2-2.6-6.1-1.7-8.8l0,0C74.6,314.3,76.9,313.9,78.8,316z"/>
			<path class="st1" d="M5.7,230.9l57.2,66.6c1.9,2.2,2.6,6.1,1.7,8.8l0,0c-0.9,2.7-3.2,3.1-5.1,1L2.2,240.6
				c-1.9-2.2-2.6-6.1-1.7-8.8l0,0C1.5,229.1,3.8,228.7,5.7,230.9z"/>
			<path class="st1" d="M18.1,184.1l57.2,66.6c1.9,2.2,2.6,6.1,1.7,8.8l0,0c-0.9,2.7-3.2,3.1-5.1,1l-57.2-66.6
				c-1.9-2.2-2.6-6.1-1.7-8.8l0,0C14,182.4,16.2,182,18.1,184.1z"/>
			<path class="st1" d="M126,309.8l16.7,19.5c1.9,2.2,2.6,6.1,1.7,8.8l0,0c-0.9,2.7-3.2,3.1-5.1,1l-16.7-19.5
				c-1.9-2.2-2.6-6.1-1.7-8.8l0,0C121.9,308.1,124.2,307.6,126,309.8z"/>
			<path class="st1" d="M-17.5,142.7l16.7,19.5c1.9,2.2,2.6,6.1,1.7,8.8l0,0c-0.9,2.7-3.2,3.1-5.1,1l-16.7-19.5
				c-1.9-2.2-2.6-6.1-1.7-8.8l0,0C-21.6,140.9-19.3,140.5-17.5,142.7z"/>
			<path class="st1" d="M44.8,307l57.2,66.6c1.9,2.2,2.6,6.1,1.7,8.8l0,0c-0.9,2.7-3.2,3.1-5.1,1l-57.2-66.6
				c-1.9-2.2-2.6-6.1-1.7-8.8l0,0C40.6,305.3,42.9,304.9,44.8,307z"/>
			<path class="st1" d="M9.2,265.6l16.7,19.5c1.9,2.2,2.6,6.1,1.7,8.8l0,0c-0.9,2.7-3.2,3.1-5.1,1L5.7,275.3
				c-1.9-2.2-2.6-6.1-1.7-8.8l0,0C5,263.8,7.3,263.4,9.2,265.6z"/>
		</g>
		<g>
			<path class="st1" d="M-75.7,205.6l57.2,66.6c1.9,2.2,2.6,6.1,1.7,8.8l0,0c-0.9,2.7-3.2,3.1-5.1,1l-57.2-66.6
				c-1.9-2.2-2.6-6.1-1.7-8.8l0,0C-79.8,203.9-77.5,203.5-75.7,205.6z"/>
			<path class="st1" d="M-63.2,158.9L-6,225.5c1.9,2.2,2.6,6.1,1.7,8.8l0,0c-0.9,2.7-3.2,3.1-5.1,1l-57.2-66.6
				c-1.9-2.2-2.6-6.1-1.7-8.8l0,0C-67.4,157.1-65.1,156.7-63.2,158.9z"/>
			<path class="st1" d="M-98.8,117.4l16.7,19.5c1.9,2.2,2.6,6.1,1.7,8.8l0,0c-0.9,2.7-3.2,3.1-5.1,1l-16.7-19.5
				c-1.9-2.2-2.6-6.1-1.7-8.8l0,0C-103,115.7-100.7,115.3-98.8,117.4z"/>
			<path class="st1" d="M-36.6,281.8l57.2,66.6c1.9,2.2,2.6,6.1,1.7,8.8l0,0c-0.9,2.7-3.2,3.1-5.1,1L-40,291.5
				c-1.9-2.2-2.6-6.1-1.7-8.8l0,0C-40.7,280-38.4,279.6-36.6,281.8z"/>
			<path class="st1" d="M-72.2,240.3l16.7,19.5c1.9,2.2,2.6,6.1,1.7,8.8l0,0c-0.9,2.7-3.2,3.1-5.1,1l-16.7-19.5
				c-1.9-2.2-2.6-6.1-1.7-8.8l0,0C-76.3,238.6-74,238.2-72.2,240.3z"/>
		</g>
	</g>
	<g>
		<g>
			<g>
				<path class="st1" d="M614.2,1053.1l57.2,66.6c1.9,2.2,2.6,6.1,1.7,8.8l0,0c-0.9,2.7-3.2,3.1-5.1,1l-57.2-66.6
					c-1.9-2.2-2.6-6.1-1.7-8.8l0,0C610.1,1051.4,612.4,1050.9,614.2,1053.1z"/>
				<path class="st1" d="M570,1001.7l30.2,35.2c1.9,2.2,2.6,6.1,1.7,8.8l0,0c-0.9,2.7-3.2,3.1-5.1,1l-30.2-35.2
					c-1.9-2.2-2.6-6.1-1.7-8.8l0,0C565.9,999.9,568.2,999.5,570,1001.7z"/>
			</g>
			<path class="st1" d="M574.6,1037.6l57.2,66.6c1.9,2.2,2.6,6.1,1.7,8.8l0,0c-0.9,2.7-3.2,3.1-5.1,1l-57.2-66.6
				c-1.9-2.2-2.6-6.1-1.7-8.8l0,0C570.5,1035.9,572.8,1035.5,574.6,1037.6z"/>
			<path class="st1" d="M501.5,952.5l57.2,66.6c1.9,2.2,2.6,6.1,1.7,8.8l0,0c-0.9,2.7-3.2,3.1-5.1,1l-57.2-66.6
				c-1.9-2.2-2.6-6.1-1.7-8.8l0,0C497.4,950.7,499.6,950.3,501.5,952.5z"/>
			<path class="st1" d="M513.9,905.7l57.2,66.6c1.9,2.2,2.6,6.1,1.7,8.8l0,0c-0.9,2.7-3.2,3.1-5.1,1l-57.2-66.6
				c-1.9-2.2-2.6-6.1-1.7-8.8l0,0C509.8,904,512.1,903.5,513.9,905.7z"/>
			<path class="st1" d="M621.9,1031.4l16.7,19.5c1.9,2.2,2.6,6.1,1.7,8.8l0,0c-0.9,2.7-3.2,3.1-5.1,1l-16.7-19.5
				c-1.9-2.2-2.6-6.1-1.7-8.8l0,0C617.7,1029.6,620,1029.2,621.9,1031.4z"/>
			<path class="st1" d="M478.4,864.3l16.7,19.5c1.9,2.2,2.6,6.1,1.7,8.8l0,0c-0.9,2.7-3.2,3.1-5.1,1L474.9,874
				c-1.9-2.2-2.6-6.1-1.7-8.8l0,0C474.2,862.5,476.5,862.1,478.4,864.3z"/>
			<path class="st1" d="M540.6,1028.6l57.2,66.6c1.9,2.2,2.6,6.1,1.7,8.8l0,0c-0.9,2.7-3.2,3.1-5.1,1l-57.2-66.6
				c-1.9-2.2-2.6-6.1-1.7-8.8l0,0C536.5,1026.9,538.7,1026.5,540.6,1028.6z"/>
			<path class="st1" d="M505,987.2l16.7,19.5c1.9,2.2,2.6,6.1,1.7,8.8l0,0c-0.9,2.7-3.2,3.1-5.1,1L501.6,997
				c-1.9-2.2-2.6-6.1-1.7-8.8l0,0C500.9,985.4,503.2,985,505,987.2z"/>
		</g>
		<g>
			<g>
				<path class="st1" d="M714.1,1030.3l57.2,66.6c1.9,2.2,2.6,6.1,1.7,8.8l0,0c-0.9,2.7-3.2,3.1-5.1,1l-57.2-66.6
					c-1.9-2.2-2.6-6.1-1.7-8.8l0,0C710,1028.5,712.2,1028.1,714.1,1030.3z"/>
				<path class="st1" d="M669.9,978.8l30.2,35.2c1.9,2.2,2.6,6.1,1.7,8.8l0,0c-0.9,2.7-3.2,3.1-5.1,1l-30.2-35.2
					c-1.9-2.2-2.6-6.1-1.7-8.8l0,0C665.8,977.1,668.1,976.7,669.9,978.8z"/>
			</g>
			<path class="st1" d="M674.5,1014.8l57.2,66.6c1.9,2.2,2.6,6.1,1.7,8.8l0,0c-0.9,2.7-3.2,3.1-5.1,1l-57.2-66.6
				c-1.9-2.2-2.6-6.1-1.7-8.8l0,0C670.4,1013,672.6,1012.6,674.5,1014.8z"/>
			<path class="st1" d="M601.4,929.6l57.2,66.6c1.9,2.2,2.6,6.1,1.7,8.8l0,0c-0.9,2.7-3.2,3.1-5.1,1L598,939.4
				c-1.9-2.2-2.6-6.1-1.7-8.8l0,0C597.3,927.9,599.5,927.5,601.4,929.6z"/>
			<path class="st1" d="M613.8,882.9l57.2,66.6c1.9,2.2,2.6,6.1,1.7,8.8l0,0c-0.9,2.7-3.2,3.1-5.1,1l-57.2-66.6
				c-1.9-2.2-2.6-6.1-1.7-8.8l0,0C609.7,881.1,612,880.7,613.8,882.9z"/>
			<path class="st1" d="M721.7,1008.5l16.7,19.5c1.9,2.2,2.6,6.1,1.7,8.8l0,0c-0.9,2.7-3.2,3.1-5.1,1l-16.7-19.5
				c-1.9-2.2-2.6-6.1-1.7-8.8l0,0C717.6,1006.8,719.9,1006.4,721.7,1008.5z"/>
			<path class="st1" d="M578.2,841.4l16.7,19.5c1.9,2.2,2.6,6.1,1.7,8.8l0,0c-0.9,2.7-3.2,3.1-5.1,1l-16.7-19.5
				c-1.9-2.2-2.6-6.1-1.7-8.8l0,0C574.1,839.7,576.4,839.3,578.2,841.4z"/>
			<path class="st1" d="M640.5,1005.8l57.2,66.6c1.9,2.2,2.6,6.1,1.7,8.8l0,0c-0.9,2.7-3.2,3.1-5.1,1l-57.2-66.6
				c-1.9-2.2-2.6-6.1-1.7-8.8l0,0C636.4,1004,638.6,1003.6,640.5,1005.8z"/>
			<path class="st1" d="M604.9,964.3l16.7,19.5c1.9,2.2,2.6,6.1,1.7,8.8l0,0c-0.9,2.7-3.2,3.1-5.1,1l-16.7-19.5
				c-1.9-2.2-2.6-6.1-1.7-8.8l0,0C600.8,962.6,603,962.2,604.9,964.3z"/>
		</g>
		<g>
			<g>
				<path class="st1" d="M671.2,919.7l57.2,66.6c1.9,2.2,2.6,6.1,1.7,8.8l0,0c-0.9,2.7-3.2,3.1-5.1,1l-57.2-66.6
					c-1.9-2.2-2.6-6.1-1.7-8.8l0,0C667,917.9,669.3,917.5,671.2,919.7z"/>
				<path class="st1" d="M627,868.2l30.2,35.2c1.9,2.2,2.6,6.1,1.7,8.8l0,0c-0.9,2.7-3.2,3.1-5.1,1L623.6,878
					c-1.9-2.2-2.6-6.1-1.7-8.8l0,0C622.9,866.5,625.1,866.1,627,868.2z"/>
			</g>
			<path class="st1" d="M631.6,904.2l57.2,66.6c1.9,2.2,2.6,6.1,1.7,8.8l0,0c-0.9,2.7-3.2,3.1-5.1,1L628.2,914
				c-1.9-2.2-2.6-6.1-1.7-8.8l0,0C627.4,902.5,629.7,902,631.6,904.2z"/>
			<path class="st1" d="M558.4,819l57.2,66.6c1.9,2.2,2.6,6.1,1.7,8.8l0,0c-0.9,2.7-3.2,3.1-5.1,1L555,828.8
				c-1.9-2.2-2.6-6.1-1.7-8.8l0,0C554.3,817.3,556.6,816.9,558.4,819z"/>
			<path class="st1" d="M570.9,772.3l57.2,66.6c1.9,2.2,2.6,6.1,1.7,8.8l0,0c-0.9,2.7-3.2,3.1-5.1,1L567.5,782
				c-1.9-2.2-2.6-6.1-1.7-8.8l0,0C566.8,770.5,569,770.1,570.9,772.3z"/>
			<path class="st1" d="M678.8,898l16.7,19.5c1.9,2.2,2.6,6.1,1.7,8.8l0,0c-0.9,2.7-3.2,3.1-5.1,1l-16.7-19.5
				c-1.9-2.2-2.6-6.1-1.7-8.8l0,0C674.7,896.2,676.9,895.8,678.8,898z"/>
			<path class="st1" d="M535.3,730.8l16.7,19.5c1.9,2.2,2.6,6.1,1.7,8.8l0,0c-0.9,2.7-3.2,3.1-5.1,1l-16.7-19.5
				c-1.9-2.2-2.6-6.1-1.7-8.8l0,0C531.2,729.1,533.4,728.7,535.3,730.8z"/>
			<path class="st1" d="M597.5,895.2l57.2,66.6c1.9,2.2,2.6,6.1,1.7,8.8l0,0c-0.9,2.7-3.2,3.1-5.1,1L594.1,905
				c-1.9-2.2-2.6-6.1-1.7-8.8l0,0C593.4,893.5,595.7,893,597.5,895.2z"/>
			<path class="st1" d="M562,853.7l16.7,19.5c1.9,2.2,2.6,6.1,1.7,8.8l0,0c-0.9,2.7-3.2,3.1-5.1,1l-16.7-19.5
				c-1.9-2.2-2.6-6.1-1.7-8.8l0,0C557.8,852,560.1,851.6,562,853.7z"/>
		</g>
		<g>
			<path class="st1" d="M477.1,793.8l57.2,66.6c1.9,2.2,2.6,6.1,1.7,8.8l0,0c-0.9,2.7-3.2,3.1-5.1,1l-57.2-66.6
				c-1.9-2.2-2.6-6.1-1.7-8.8l0,0C473,792,475.3,791.6,477.1,793.8z"/>
			<path class="st1" d="M489.6,747l57.2,66.6c1.9,2.2,2.6,6.1,1.7,8.8l0,0c-0.9,2.7-3.2,3.1-5.1,1l-57.2-66.6
				c-1.9-2.2-2.6-6.1-1.7-8.8l0,0C485.4,745.3,487.7,744.9,489.6,747z"/>
			<path class="st1" d="M454,705.6l16.7,19.5c1.9,2.2,2.6,6.1,1.7,8.8l0,0c-0.9,2.7-3.2,3.1-5.1,1l-16.7-19.5
				c-1.9-2.2-2.6-6.1-1.7-8.8l0,0C449.8,703.8,452.1,703.4,454,705.6z"/>
			<path class="st1" d="M516.2,869.9l57.2,66.6c1.9,2.2,2.6,6.1,1.7,8.8l0,0c-0.9,2.7-3.2,3.1-5.1,1l-57.2-66.6
				c-1.9-2.2-2.6-6.1-1.7-8.8l0,0C512.1,868.2,514.4,867.8,516.2,869.9z"/>
			<path class="st1" d="M480.6,828.5l16.7,19.5c1.9,2.2,2.6,6.1,1.7,8.8l0,0c-0.9,2.7-3.2,3.1-5.1,1l-16.7-19.5
				c-1.9-2.2-2.6-6.1-1.7-8.8l0,0C476.5,826.8,478.8,826.3,480.6,828.5z"/>
		</g>
	</g>
</g>
</svg>
