<?xml version="1.0" encoding="utf-8"?>
<!-- Generator: Adobe Illustrator 21.0.2, SVG Export Plug-In . SVG Version: 6.00 Build 0)  -->
<svg version="1.1" id="Layer_1" xmlns="http://www.w3.org/2000/svg" xmlns:xlink="http://www.w3.org/1999/xlink" x="0px" y="0px"
	 viewBox="0 0 988 1024" style="enable-background:new 0 0 988 1024;" xml:space="preserve">
<style type="text/css">
	.st0{opacity:0.4999;}
	.st1{fill:#FF4D0E;stroke:#F5A623;stroke-linecap:square;}
</style>
<g class="st0">
	<path class="st1" d="M1.5,1032.5L1600.4-535.7"/>
	<path class="st1" d="M10.5,1039.5L1609.4-528.7"/>
	<path class="st1" d="M19.5,1046.5L1618.4-521.7"/>
	<path class="st1" d="M28.5,1053.5L1627.4-514.7"/>
	<path class="st1" d="M37.5,1060.5L1636.4-507.7"/>
	<path class="st1" d="M46.5,1067.5L1645.4-500.7"/>
	<path class="st1" d="M55.5,1074.5L1654.4-493.7"/>
	<path class="st1" d="M64.5,1081.5L1663.4-486.7"/>
	<path class="st1" d="M73.5,1088.5L1672.4-479.7"/>
	<path class="st1" d="M82.5,1095.5L1681.4-472.7"/>
	<path class="st1" d="M91.5,1102.5L1690.4-465.7"/>
	<path class="st1" d="M100.5,1109.5L1699.4-458.7"/>
	<path class="st1" d="M109.5,1116.5L1708.4-451.7"/>
	<path class="st1" d="M118.5,1123.5L1717.4-444.7"/>
	<path class="st1" d="M127.5,1130.5L1726.4-437.7"/>
	<path class="st1" d="M136.5,1137.5L1735.4-430.7"/>
	<path class="st1" d="M145.5,1144.5L1744.4-423.7"/>
	<path class="st1" d="M154.5,1151.5L1753.4-416.7"/>
	<path class="st1" d="M163.5,1158.5L1762.4-409.7"/>
	<path class="st1" d="M172.5,1165.5L1771.4-402.7"/>
	<path class="st1" d="M181.5,1172.5L1780.4-395.7"/>
	<path class="st1" d="M190.5,1179.5L1789.4-388.7"/>
	<path class="st1" d="M199.5,1186.5L1798.4-381.7"/>
	<path class="st1" d="M208.5,1193.5L1807.4-374.7"/>
	<path class="st1" d="M217.5,1200.5L1816.4-367.7"/>
	<path class="st1" d="M226.5,1207.5L1825.4-360.7"/>
	<path class="st1" d="M235.5,1214.5L1834.4-353.7"/>
	<path class="st1" d="M244.5,1221.5L1843.4-346.7"/>
	<path class="st1" d="M253.5,1228.5L1852.4-339.7"/>
	<path class="st1" d="M262.5,1235.5L1861.4-332.7"/>
	<path class="st1" d="M271.5,1242.5L1870.4-325.7"/>
	<path class="st1" d="M280.5,1249.5L1879.4-318.7"/>
	<path class="st1" d="M289.5,1256.5L1888.4-311.7"/>
	<path class="st1" d="M298.5,1263.5L1897.4-304.7"/>
	<path class="st1" d="M307.5,1270.5L1906.4-297.7"/>
	<path class="st1" d="M316.5,1277.5L1915.4-290.7"/>
	<path class="st1" d="M325.5,1284.5L1924.4-283.7"/>
	<path class="st1" d="M334.5,1291.5L1933.4-276.7"/>
</g>
</svg>
